<?xml version="1.0" standalone="no"?>
<!DOCTYPE svg PUBLIC "-//W3C//DTD SVG 20010904//EN"
 "http://www.w3.org/TR/2001/REC-SVG-20010904/DTD/svg10.dtd">
<svg version="1.0" xmlns="http://www.w3.org/2000/svg"
 width="756.000000pt" height="756.000000pt" viewBox="0 0 756.000000 756.000000"
 preserveAspectRatio="xMidYMid meet">
<metadata>
Created by potrace 1.14, written by Peter Selinger 2001-2017
</metadata>
<g transform="translate(0.000000,756.000000) scale(0.100000,-0.100000)"
fill="#000000" stroke="none">
<path d="M2753 4610 c-149 -32 -472 -384 -662 -722 l-55 -97 -70 -29 c-113
-48 -192 -65 -286 -64 -94 1 -130 -13 -130 -50 l0 -22 -15 21 c-28 40 -84 38
-131 -3 -11 -11 -51 -57 -88 -104 -97 -122 -96 -122 -209 -198 -315 -213 -596
-333 -787 -335 -162 -2 -234 62 -243 213 -15 251 218 680 535 985 206 199 315
265 444 270 39 2 80 6 92 9 45 15 35 80 -14 92 -115 29 -302 -83 -544 -326
-386 -388 -622 -877 -549 -1137 18 -65 87 -134 152 -152 84 -24 202 -15 332
26 141 44 395 173 563 285 39 27 72 46 72 43 0 -3 -7 -19 -15 -36 -25 -46 -37
-128 -25 -164 17 -51 71 -96 122 -102 133 -15 384 185 470 375 27 60 34 114
26 190 -3 21 10 28 130 76 73 30 131 49 129 42 -63 -163 -82 -315 -52 -410 21
-66 88 -134 151 -154 88 -27 248 -3 387 57 l49 21 41 -24 c64 -37 149 -50 297
-43 72 3 133 8 138 11 4 2 28 7 52 11 80 11 281 56 306 67 13 6 24 17 24 25 0
25 -40 30 -110 12 -122 -31 -323 -61 -428 -64 -101 -3 -172 8 -222 35 -23 12
-23 14 -6 24 33 20 141 101 175 131 180 159 225 252 152 317 -73 65 -196 23
-332 -112 -110 -110 -160 -226 -131 -309 l11 -30 -77 -29 c-172 -66 -321 -58
-387 20 -26 31 -55 116 -54 158 3 59 22 151 50 236 l30 92 117 67 c217 125
376 244 517 390 137 140 209 267 192 337 -15 59 -71 91 -134 78z m54 -121
c-17 -129 -172 -312 -412 -486 -76 -55 -179 -119 -245 -153 l-41 -21 12 23 c7
13 35 59 62 103 173 273 398 501 551 556 75 27 80 26 73 -22z m103 -845 c0
-22 -70 -122 -124 -176 -67 -67 -209 -172 -220 -161 -14 14 -5 72 20 121 47
94 153 181 253 208 53 15 71 16 71 8z m-1313 -64 c22 0 53 -52 53 -90 0 -58
-59 -166 -131 -237 -81 -81 -172 -128 -248 -128 l-56 0 2 48 c4 120 108 265
256 360 37 24 59 45 63 62 l6 26 22 -20 c12 -12 27 -21 33 -21z"/>
<path d="M5170 4509 c-36 -22 -200 -188 -200 -202 0 -4 -29 -50 -65 -103 -56
-82 -98 -148 -169 -267 -99 -165 -358 -671 -374 -729 -16 -60 24 -110 63 -78
8 7 46 76 84 154 38 77 92 182 118 231 69 127 348 606 401 689 24 37 45 81 46
97 2 47 120 149 173 149 6 0 18 -21 27 -47 32 -94 10 -299 -61 -562 -34 -128
-22 -177 46 -194 47 -12 82 12 147 103 111 155 360 430 484 535 48 40 130 92
130 82 0 -2 -11 -35 -24 -73 -33 -96 -78 -195 -200 -442 -58 -117 -106 -216
-106 -220 0 -4 -7 -20 -15 -35 -48 -92 -94 -255 -90 -321 8 -166 167 -185 414
-50 63 35 64 35 85 16 42 -39 87 -54 160 -54 156 0 380 87 653 253 37 23 72
44 76 46 5 3 -8 -26 -27 -63 -42 -80 -62 -164 -52 -216 16 -87 115 -134 259
-124 167 11 369 65 375 100 8 39 -25 41 -173 10 -235 -50 -366 -34 -373 45 -5
47 10 80 95 207 77 118 89 157 55 187 -25 23 -72 8 -131 -41 -120 -101 -343
-228 -491 -280 -145 -51 -276 -60 -343 -25 l-32 16 35 28 c19 16 73 58 120 94
130 100 286 258 305 309 15 39 15 47 2 79 -31 72 -111 90 -192 42 -114 -66
-254 -212 -316 -328 -35 -65 -58 -147 -53 -183 3 -18 -8 -27 -59 -52 -88 -43
-153 -63 -222 -69 -53 -5 -62 -3 -80 17 -16 18 -20 35 -19 86 3 124 97 346
338 792 102 189 126 253 115 298 -13 48 -77 68 -126 41 -31 -17 -221 -204
-393 -387 -80 -85 -179 -187 -220 -228 -93 -92 -94 -91 -45 148 19 96 39 198
43 225 9 62 9 191 -1 226 -21 80 -120 114 -197 68z m-358 -561 c-131 -241
-202 -366 -202 -354 0 20 214 406 226 406 2 0 -9 -24 -24 -52z m1693 -205
c-33 -79 -188 -234 -342 -341 -41 -29 -46 -28 -38 11 19 90 130 235 233 302
36 24 128 62 155 64 4 1 0 -16 -8 -36z"/>
<path d="M7446 4163 c-34 -18 -35 -50 -1 -59 39 -10 85 14 85 42 0 13 -3 25
-7 25 -35 6 -54 4 -77 -8z"/>
</g>
</svg>
